<svg xmlns="http://www.w3.org/2000/svg" width="346.667" height="346.667" version="1" viewBox="0 0 260 260"><path d="M97.7 22.1c-3.8 1.1-10.5 3.3-14.9 5l-8 3.1.6 9.2c.4 5 .9 10.9 1.2 13.1.5 3.9.4 4.1-4.8 7.2-2.9 1.7-8.1 5.4-11.5 8.2l-6.1 5-4.4-2.8c-2.3-1.5-6.9-4.2-10.1-6-5.7-3.2-5.9-3.3-7.9-1.5-2.9 2.6-15.6 19.2-17.5 22.7-1.5 3-1.4 3.1 5.6 13.4l7.1 10.4v61.5l19.2 1.8c10.6 1 20 2.2 20.9 2.6 1.9 1 2.9 6 2.9 14.1v5.7l7.3.6c3.9.3 11.3.9 16.3 1.2 10.4.7 9.7 1.3 10.9-8.6 1.3-10.4.2-10 25.5-10s24.2-.4 25.5 10c1.2 9.9.4 9.3 11.4 8.6 5.3-.4 12.6-.9 16.4-1.3l6.7-.6v-5.6c0-8.1 1-13.1 2.9-14 .9-.5 10.3-1.7 20.9-2.7l19.2-1.8v-61.5l7.1-10.4c7-10.3 7.1-10.4 5.6-13.4-1.9-3.5-14.6-20.1-17.5-22.7-2-1.8-2.2-1.7-7.9 1.5-3.2 1.8-7.8 4.5-10.1 6l-4.4 2.8-6.1-5c-3.4-2.8-8.6-6.5-11.5-8.2-5.2-3.1-5.3-3.3-4.8-7.2.3-2.2.8-8.1 1.2-13.1l.6-9.2-7.9-3c-10.9-4.2-22.5-7.4-23.5-6.4-.5.5-3.2 5.5-6.1 11.1l-5.3 10.2h-24.8L112 31.4c-3-5.9-6-10.9-6.5-11-.6-.1-4.1.6-7.8 1.7zm-11.3 91.1c7.8 4 12.5 11.7 12.6 20.6.1 17.6-18 28.5-33.9 20.6-19-9.5-16-37.4 4.7-43 5.5-1.5 11.2-.9 16.6 1.8zm108.3 0c9.3 4.3 14.6 15.3 12.4 25.4-1.6 7.2-5.8 12.6-12.2 15.8-15.9 7.9-33.9-2.9-33.9-20.4 0-17.7 17.5-28.5 33.7-20.8zm-59.2 13.3c2.4 2.3 2.5 3 2.5 14.8 0 11.1-.2 12.7-2.1 15.1-2.9 3.7-8.9 3.7-11.8 0-1.9-2.4-2.1-4-2.1-15.1 0-11.8.1-12.5 2.5-14.8 1.5-1.6 3.6-2.5 5.5-2.5s4 .9 5.5 2.5z"/><path d="M71.2 121.7c-7.3 3.6-10.5 14.3-6.3 21.1 8 12.7 28.1 7.5 28.1-7.3 0-11.2-11.8-18.7-21.8-13.8zM174.6 122.2c-13.3 7.8-7.9 27.8 7.4 27.8 11.3 0 18.3-11.3 13.4-21.6-3.6-7.6-13.4-10.5-20.8-6.2zM27.2 188.2c.7 12.1 3.5 18.5 11.7 26.8 8 8.1 16.7 13.1 30.5 17.6 17.3 5.6 30.3 7.5 54.6 8.1 16.6.4 24.4.1 34-1.1 31.9-4.2 52.4-12.5 64.9-26.2 6.3-6.9 9.2-14.3 9.9-25.2l.5-8.2h-2.9c-2 .1-29.1 2.6-31 3-.1 0-.4 4.1-.6 9.2-.4 6.8-1 9.5-2.2 10.3-.9.7-9.5 1.7-20.3 2.4-10.4.7-19.9 1.4-21.3 1.7-4.1.8-5.9-1.5-7.1-8.6-2-12.4.3-11-17.9-11s-15.9-1.4-17.9 11c-1.2 7.1-3 9.4-7.1 8.6-1.4-.3-10.9-1-21.3-1.7-10.8-.7-19.4-1.7-20.3-2.4-1.2-.8-1.8-3.5-2.2-10.3l-.5-9.1-4.1-.6c-6.4-.8-24.5-2.5-27.3-2.5h-2.6l.5 8.2z"/></svg>